<mxfile host="app.diagrams.net" modified="2023-12-22T18:11:26.719Z" agent="Mozilla/5.0 (Windows NT 10.0; Win64; x64) AppleWebKit/537.36 (KHTML, like Gecko) Chrome/120.0.0.0 Safari/537.36 Edg/120.0.0.0" etag="mhS_NCPm76A-9610sU40" version="22.1.11" type="github">
  <diagram name="Page-1" id="wJ69J9OJJBXvmyQM8bEp">
    <mxGraphModel dx="1049" dy="1747" grid="1" gridSize="10" guides="1" tooltips="1" connect="1" arrows="1" fold="1" page="1" pageScale="1" pageWidth="850" pageHeight="1100" math="0" shadow="0">
      <root>
        <mxCell id="0" />
        <mxCell id="1" parent="0" />
        <mxCell id="vMm9_pIpNtlXI1ynGuiI-3" value="" style="edgeStyle=orthogonalEdgeStyle;rounded=0;orthogonalLoop=1;jettySize=auto;html=1;" edge="1" parent="1" source="vMm9_pIpNtlXI1ynGuiI-1" target="vMm9_pIpNtlXI1ynGuiI-2">
          <mxGeometry relative="1" as="geometry" />
        </mxCell>
        <mxCell id="vMm9_pIpNtlXI1ynGuiI-7" value="" style="rounded=0;whiteSpace=wrap;html=1;fillColor=#f8cecc;strokeColor=#b85450;" vertex="1" parent="1">
          <mxGeometry x="90" y="500" width="120" height="360" as="geometry" />
        </mxCell>
        <mxCell id="vMm9_pIpNtlXI1ynGuiI-1" value="app入口" style="whiteSpace=wrap;html=1;aspect=fixed;" vertex="1" parent="1">
          <mxGeometry x="110" y="630" width="80" height="80" as="geometry" />
        </mxCell>
        <mxCell id="vMm9_pIpNtlXI1ynGuiI-9" value="" style="edgeStyle=orthogonalEdgeStyle;rounded=0;orthogonalLoop=1;jettySize=auto;html=1;" edge="1" parent="1" source="vMm9_pIpNtlXI1ynGuiI-2" target="vMm9_pIpNtlXI1ynGuiI-8">
          <mxGeometry relative="1" as="geometry" />
        </mxCell>
        <mxCell id="vMm9_pIpNtlXI1ynGuiI-2" value="router层" style="whiteSpace=wrap;html=1;fillColor=#fff2cc;strokeColor=#d6b656;" vertex="1" parent="1">
          <mxGeometry x="320" y="500" width="480" height="360" as="geometry" />
        </mxCell>
        <mxCell id="vMm9_pIpNtlXI1ynGuiI-11" value="" style="edgeStyle=orthogonalEdgeStyle;rounded=0;orthogonalLoop=1;jettySize=auto;html=1;" edge="1" parent="1" source="vMm9_pIpNtlXI1ynGuiI-8" target="vMm9_pIpNtlXI1ynGuiI-10">
          <mxGeometry relative="1" as="geometry" />
        </mxCell>
        <mxCell id="vMm9_pIpNtlXI1ynGuiI-8" value="controller&lt;br&gt;控制业务逻辑" style="whiteSpace=wrap;html=1;fillColor=#dae8fc;strokeColor=#6c8ebf;" vertex="1" parent="1">
          <mxGeometry x="1110" y="490" width="350" height="360" as="geometry" />
        </mxCell>
        <mxCell id="vMm9_pIpNtlXI1ynGuiI-10" value="model&lt;br&gt;定义数据结构" style="whiteSpace=wrap;html=1;fillColor=#60a917;fontColor=#ffffff;strokeColor=#2D7600;" vertex="1" parent="1">
          <mxGeometry x="1850" y="470" width="640" height="420" as="geometry" />
        </mxCell>
        <mxCell id="vMm9_pIpNtlXI1ynGuiI-36" style="edgeStyle=orthogonalEdgeStyle;rounded=0;orthogonalLoop=1;jettySize=auto;html=1;" edge="1" parent="1" source="vMm9_pIpNtlXI1ynGuiI-12">
          <mxGeometry relative="1" as="geometry">
            <mxPoint x="1950" y="1030" as="targetPoint" />
          </mxGeometry>
        </mxCell>
        <mxCell id="vMm9_pIpNtlXI1ynGuiI-12" value="index.js&lt;br&gt;1.连接数据库&lt;br&gt;2.封装数据结构&lt;br&gt;3.export所有数据结构&lt;br&gt;" style="rounded=0;whiteSpace=wrap;html=1;" vertex="1" parent="1">
          <mxGeometry x="1860" y="570" width="180" height="90" as="geometry" />
        </mxCell>
        <mxCell id="vMm9_pIpNtlXI1ynGuiI-14" value="index.js对请求的第一次分流" style="rounded=0;whiteSpace=wrap;html=1;" vertex="1" parent="1">
          <mxGeometry x="320" y="530" width="120" height="60" as="geometry" />
        </mxCell>
        <mxCell id="vMm9_pIpNtlXI1ynGuiI-17" value="user.js&lt;br style=&quot;border-color: var(--border-color);&quot;&gt;1.对请求的第二次分流&amp;nbsp;&lt;br style=&quot;border-color: var(--border-color);&quot;&gt;2.对controller的调用&lt;br style=&quot;border-color: var(--border-color);&quot;&gt;3.对请求的过滤" style="rounded=0;whiteSpace=wrap;html=1;" vertex="1" parent="1">
          <mxGeometry x="480" y="520" width="140" height="80" as="geometry" />
        </mxCell>
        <mxCell id="vMm9_pIpNtlXI1ynGuiI-20" value="mideleware&lt;br&gt;" style="rounded=0;whiteSpace=wrap;html=1;fillColor=#dae8fc;strokeColor=#6c8ebf;" vertex="1" parent="1">
          <mxGeometry x="210" y="170" width="640" height="160" as="geometry" />
        </mxCell>
        <mxCell id="vMm9_pIpNtlXI1ynGuiI-21" value="验证器，对登录和注册进行后盾和数据库验证" style="rounded=0;whiteSpace=wrap;html=1;" vertex="1" parent="1">
          <mxGeometry x="230" y="190" width="120" height="60" as="geometry" />
        </mxCell>
        <mxCell id="vMm9_pIpNtlXI1ynGuiI-22" style="edgeStyle=orthogonalEdgeStyle;rounded=0;orthogonalLoop=1;jettySize=auto;html=1;entryX=0.114;entryY=0.99;entryDx=0;entryDy=0;entryPerimeter=0;" edge="1" parent="1" source="vMm9_pIpNtlXI1ynGuiI-17" target="vMm9_pIpNtlXI1ynGuiI-20">
          <mxGeometry relative="1" as="geometry" />
        </mxCell>
        <mxCell id="vMm9_pIpNtlXI1ynGuiI-24" value="userController&lt;br&gt;1.对user路由的各种请求进行处理&lt;br&gt;2.对DB取出来的数据进行操作" style="rounded=0;whiteSpace=wrap;html=1;" vertex="1" parent="1">
          <mxGeometry x="1130" y="500" width="160" height="110" as="geometry" />
        </mxCell>
        <mxCell id="vMm9_pIpNtlXI1ynGuiI-27" style="edgeStyle=orthogonalEdgeStyle;rounded=0;orthogonalLoop=1;jettySize=auto;html=1;" edge="1" parent="1" source="vMm9_pIpNtlXI1ynGuiI-26" target="vMm9_pIpNtlXI1ynGuiI-12">
          <mxGeometry relative="1" as="geometry" />
        </mxCell>
        <mxCell id="vMm9_pIpNtlXI1ynGuiI-29" value="" style="edgeStyle=orthogonalEdgeStyle;rounded=0;orthogonalLoop=1;jettySize=auto;html=1;" edge="1" parent="1" source="vMm9_pIpNtlXI1ynGuiI-26" target="vMm9_pIpNtlXI1ynGuiI-28">
          <mxGeometry relative="1" as="geometry" />
        </mxCell>
        <mxCell id="vMm9_pIpNtlXI1ynGuiI-26" value="userModel&lt;br&gt;对数据格式进行定义" style="rounded=0;whiteSpace=wrap;html=1;" vertex="1" parent="1">
          <mxGeometry x="2080" y="500" width="120" height="60" as="geometry" />
        </mxCell>
        <mxCell id="vMm9_pIpNtlXI1ynGuiI-28" value="MD5进行加密" style="whiteSpace=wrap;html=1;rounded=0;" vertex="1" parent="1">
          <mxGeometry x="2070" y="300" width="120" height="60" as="geometry" />
        </mxCell>
        <mxCell id="vMm9_pIpNtlXI1ynGuiI-41" style="edgeStyle=orthogonalEdgeStyle;rounded=0;orthogonalLoop=1;jettySize=auto;html=1;" edge="1" parent="1" source="vMm9_pIpNtlXI1ynGuiI-30" target="vMm9_pIpNtlXI1ynGuiI-17">
          <mxGeometry relative="1" as="geometry">
            <Array as="points">
              <mxPoint x="1020" y="280" />
              <mxPoint x="1020" y="400" />
              <mxPoint x="620" y="400" />
            </Array>
          </mxGeometry>
        </mxCell>
        <mxCell id="vMm9_pIpNtlXI1ynGuiI-42" value="调用其他的方法验证token" style="edgeLabel;html=1;align=center;verticalAlign=middle;resizable=0;points=[];" vertex="1" connectable="0" parent="vMm9_pIpNtlXI1ynGuiI-41">
          <mxGeometry x="-0.1623" y="-4" relative="1" as="geometry">
            <mxPoint as="offset" />
          </mxGeometry>
        </mxCell>
        <mxCell id="vMm9_pIpNtlXI1ynGuiI-30" value="JWT" style="rounded=0;whiteSpace=wrap;html=1;" vertex="1" parent="1">
          <mxGeometry x="1140" y="250" width="120" height="60" as="geometry" />
        </mxCell>
        <mxCell id="vMm9_pIpNtlXI1ynGuiI-31" style="edgeStyle=orthogonalEdgeStyle;rounded=0;orthogonalLoop=1;jettySize=auto;html=1;entryX=0.373;entryY=0;entryDx=0;entryDy=0;entryPerimeter=0;" edge="1" parent="1" source="vMm9_pIpNtlXI1ynGuiI-30" target="vMm9_pIpNtlXI1ynGuiI-24">
          <mxGeometry relative="1" as="geometry" />
        </mxCell>
        <mxCell id="vMm9_pIpNtlXI1ynGuiI-38" value="登录给token" style="edgeLabel;html=1;align=center;verticalAlign=middle;resizable=0;points=[];" vertex="1" connectable="0" parent="vMm9_pIpNtlXI1ynGuiI-31">
          <mxGeometry x="0.0876" y="-3" relative="1" as="geometry">
            <mxPoint as="offset" />
          </mxGeometry>
        </mxCell>
        <mxCell id="vMm9_pIpNtlXI1ynGuiI-34" value="" style="edgeStyle=orthogonalEdgeStyle;rounded=0;orthogonalLoop=1;jettySize=auto;html=1;" edge="1" parent="1" source="vMm9_pIpNtlXI1ynGuiI-33" target="vMm9_pIpNtlXI1ynGuiI-30">
          <mxGeometry relative="1" as="geometry" />
        </mxCell>
        <mxCell id="vMm9_pIpNtlXI1ynGuiI-33" value="config存储盐值" style="rounded=0;whiteSpace=wrap;html=1;" vertex="1" parent="1">
          <mxGeometry x="1140" y="130" width="120" height="60" as="geometry" />
        </mxCell>
        <mxCell id="vMm9_pIpNtlXI1ynGuiI-37" value=",DB存储真正的数据&lt;br&gt;" style="rounded=0;whiteSpace=wrap;html=1;" vertex="1" parent="1">
          <mxGeometry x="1890" y="1030" width="120" height="60" as="geometry" />
        </mxCell>
      </root>
    </mxGraphModel>
  </diagram>
</mxfile>
